<?xml version="1.0" encoding="UTF-8" standalone="no"?>
<!DOCTYPE svg PUBLIC "-//W3C//DTD SVG 1.1//EN"
 "http://www.w3.org/Graphics/SVG/1.1/DTD/svg11.dtd">
<!-- Generated by graphviz version 4.0.0 (0)
 -->
<!-- Title: schedule Pages: 1 -->
<svg width="1896pt" height="1053pt"
 viewBox="0.00 0.00 1896.00 1053.00" xmlns="http://www.w3.org/2000/svg" xmlns:xlink="http://www.w3.org/1999/xlink">
<g id="graph0" class="graph" transform="scale(1 1) rotate(0) translate(4 1049)">
<title>schedule</title>
<polygon fill="#35393f" stroke="transparent" points="-4,4 -4,-1049 1892,-1049 1892,4 -4,4"/>
<g id="clust1" class="cluster">
<title>cluster_Extract</title>
<path fill="#99aab5" stroke="#99aab5" d="M20,-8C20,-8 397,-8 397,-8 403,-8 409,-14 409,-20 409,-20 409,-1025 409,-1025 409,-1031 403,-1037 397,-1037 397,-1037 20,-1037 20,-1037 14,-1037 8,-1031 8,-1025 8,-1025 8,-20 8,-20 8,-14 14,-8 20,-8"/>
<text text-anchor="middle" x="208.5" y="-1020.2" font-family="Helvetica,sans-Serif" font-size="16.00">Extract</text>
</g>
<g id="clust2" class="cluster">
<title>cluster_Prepare</title>
<path fill="#99aab5" stroke="#99aab5" d="M441,-503C441,-503 762,-503 762,-503 768,-503 774,-509 774,-515 774,-515 774,-1025 774,-1025 774,-1031 768,-1037 762,-1037 762,-1037 441,-1037 441,-1037 435,-1037 429,-1031 429,-1025 429,-1025 429,-515 429,-515 429,-509 435,-503 441,-503"/>
<text text-anchor="middle" x="601.5" y="-1020.2" font-family="Helvetica,sans-Serif" font-size="16.00">Prepare</text>
</g>
<g id="clust3" class="cluster">
<title>cluster_Queue</title>
<path fill="#99aab5" stroke="#99aab5" d="M806,-635C806,-635 1096,-635 1096,-635 1102,-635 1108,-641 1108,-647 1108,-647 1108,-1025 1108,-1025 1108,-1031 1102,-1037 1096,-1037 1096,-1037 806,-1037 806,-1037 800,-1037 794,-1031 794,-1025 794,-1025 794,-647 794,-647 794,-641 800,-635 806,-635"/>
<text text-anchor="middle" x="951" y="-1020.2" font-family="Helvetica,sans-Serif" font-size="16.00">Queue</text>
</g>
<g id="clust4" class="cluster">
<title>cluster_PhaseSort</title>
<path fill="#99aab5" stroke="#99aab5" d="M1140,-734C1140,-734 1382,-734 1382,-734 1388,-734 1394,-740 1394,-746 1394,-746 1394,-1025 1394,-1025 1394,-1031 1388,-1037 1382,-1037 1382,-1037 1140,-1037 1140,-1037 1134,-1037 1128,-1031 1128,-1025 1128,-1025 1128,-746 1128,-746 1128,-740 1134,-734 1140,-734"/>
<text text-anchor="middle" x="1261" y="-1020.2" font-family="Helvetica,sans-Serif" font-size="16.00">PhaseSort</text>
</g>
<g id="clust5" class="cluster">
<title>cluster_Render</title>
<path fill="#99aab5" stroke="#99aab5" d="M1426,-899C1426,-899 1630,-899 1630,-899 1636,-899 1642,-905 1642,-911 1642,-911 1642,-1025 1642,-1025 1642,-1031 1636,-1037 1630,-1037 1630,-1037 1426,-1037 1426,-1037 1420,-1037 1414,-1031 1414,-1025 1414,-1025 1414,-911 1414,-911 1414,-905 1420,-899 1426,-899"/>
<text text-anchor="middle" x="1528" y="-1020.2" font-family="Helvetica,sans-Serif" font-size="16.00">Render</text>
</g>
<g id="clust6" class="cluster">
<title>cluster_Cleanup</title>
<path fill="#99aab5" stroke="#99aab5" d="M1674,-932C1674,-932 1868,-932 1868,-932 1874,-932 1880,-938 1880,-944 1880,-944 1880,-1025 1880,-1025 1880,-1031 1874,-1037 1868,-1037 1868,-1037 1674,-1037 1674,-1037 1668,-1037 1662,-1031 1662,-1025 1662,-1025 1662,-944 1662,-944 1662,-938 1668,-932 1674,-932"/>
<text text-anchor="middle" x="1771" y="-1020.2" font-family="Helvetica,sans-Serif" font-size="16.00">Cleanup</text>
</g>
<!-- MARKER_schedule_Extract -->
<!-- MARKER_schedule_Prepare -->
<!-- MARKER_schedule_Extract&#45;&gt;MARKER_schedule_Prepare -->
<g id="edge7" class="edge">
<title>MARKER_schedule_Extract&#45;&gt;MARKER_schedule_Prepare</title>
<path fill="none" stroke="white" d="M299.2,-988C358.58,-988 436.58,-988 498.34,-988"/>
<polygon fill="white" stroke="white" points="498.5,-991.5 508.5,-988 498.5,-984.5 498.5,-991.5"/>
</g>
<!-- schedule_bevy_core_pipeline::core_2d::extract_core_2d_camera_phases_0 -->
<g id="node2" class="node">
<title>schedule_bevy_core_pipeline::core_2d::extract_core_2d_camera_phases_0</title>
<g id="a_node2"><a xlink:title="Components [Camera]&#10;">
<polygon fill="#eff1f3" stroke="#eff1f3" points="316,-969.5 101,-969.5 101,-940.5 316,-940.5 316,-969.5"/>
<text text-anchor="middle" x="208.5" y="-951.3" font-family="Times,serif" font-size="14.00">extract_core_2d_camera_phases</text>
</a>
</g>
</g>
<!-- schedule_bevy_core_pipeline::core_3d::extract_core_3d_camera_phases_1 -->
<g id="node3" class="node">
<title>schedule_bevy_core_pipeline::core_3d::extract_core_3d_camera_phases_1</title>
<g id="a_node3"><a xlink:title="Components [Camera]&#10;">
<polygon fill="#eff1f3" stroke="#eff1f3" points="316,-936.5 101,-936.5 101,-907.5 316,-907.5 316,-936.5"/>
<text text-anchor="middle" x="208.5" y="-918.3" font-family="Times,serif" font-size="14.00">extract_core_3d_camera_phases</text>
</a>
</g>
</g>
<!-- schedule_bevy_pbr::render::light::extract_clusters_2 -->
<g id="node4" class="node">
<title>schedule_bevy_pbr::render::light::extract_clusters_2</title>
<g id="a_node4"><a xlink:title="Components [Clusters]&#10;">
<polygon fill="#eff1f3" stroke="#eff1f3" points="261.5,-903.5 155.5,-903.5 155.5,-874.5 261.5,-874.5 261.5,-903.5"/>
<text text-anchor="middle" x="208.5" y="-885.3" font-family="Times,serif" font-size="14.00">extract_clusters</text>
</a>
</g>
</g>
<!-- schedule_bevy_pbr::render::light::extract_lights_3 -->
<g id="node5" class="node">
<title>schedule_bevy_pbr::render::light::extract_lights_3</title>
<g id="a_node5"><a xlink:title="Components [GlobalTransform, Visibility, PointLight, DirectionalLight]&#10;ComponentsMut [VisibleEntities, CubemapVisibleEntities]&#10;Res [GlobalVisiblePointLights, DirectionalLightShadowMap, PointLightShadowMap]&#10;">
<polygon fill="#eff1f3" stroke="#eff1f3" points="254,-870.5 163,-870.5 163,-841.5 254,-841.5 254,-870.5"/>
<text text-anchor="middle" x="208.5" y="-852.3" font-family="Times,serif" font-size="14.00">extract_lights</text>
</a>
</g>
</g>
<!-- schedule_bevy_pbr::render::mesh::extract_meshes_4 -->
<g id="node6" class="node">
<title>schedule_bevy_pbr::render::mesh::extract_meshes_4</title>
<g id="a_node6"><a xlink:title="Components [GlobalTransform, Handle&lt;Mesh&gt;, ComputedVisibility, NotShadowReceiver]&#10;">
<polygon fill="#eff1f3" stroke="#eff1f3" points="260.5,-837.5 156.5,-837.5 156.5,-808.5 260.5,-808.5 260.5,-837.5"/>
<text text-anchor="middle" x="208.5" y="-819.3" font-family="Times,serif" font-size="14.00">extract_meshes</text>
</a>
</g>
</g>
<!-- schedule_bevy_pbr::render::mesh::extract_skinned_meshes_5 -->
<g id="node7" class="node">
<title>schedule_bevy_pbr::render::mesh::extract_skinned_meshes_5</title>
<g id="a_node7"><a xlink:title="Components [GlobalTransform, ComputedVisibility, SkinnedMesh]&#10;Res [Assets&lt;SkinnedMeshInverseBindposes&gt;]&#10;">
<polygon fill="#eff1f3" stroke="#eff1f3" points="290,-804.5 127,-804.5 127,-775.5 290,-775.5 290,-804.5"/>
<text text-anchor="middle" x="208.5" y="-786.3" font-family="Times,serif" font-size="14.00">extract_skinned_meshes</text>
</a>
</g>
</g>
<!-- schedule_bevy_render::camera::camera::extract_cameras_6 -->
<g id="node8" class="node">
<title>schedule_bevy_render::camera::camera::extract_cameras_6</title>
<g id="a_node8"><a xlink:title="Components [GlobalTransform, Camera, VisibleEntities, CameraRenderGraph]&#10;">
<polygon fill="#eff1f3" stroke="#eff1f3" points="264,-771.5 153,-771.5 153,-742.5 264,-742.5 264,-771.5"/>
<text text-anchor="middle" x="208.5" y="-753.3" font-family="Times,serif" font-size="14.00">extract_cameras</text>
</a>
</g>
</g>
<!-- schedule_bevy_render::extract_component::extract_components&lt;bevy_core_pipeline::core_2d::camera_2d::Camera2d&gt;_7 -->
<g id="node9" class="node">
<title>schedule_bevy_render::extract_component::extract_components&lt;bevy_core_pipeline::core_2d::camera_2d::Camera2d&gt;_7</title>
<g id="a_node9"><a xlink:title="Components [Camera2d]&#10;">
<polygon fill="#eff1f3" stroke="#eff1f3" points="318,-738.5 99,-738.5 99,-709.5 318,-709.5 318,-738.5"/>
<text text-anchor="middle" x="208.5" y="-720.3" font-family="Times,serif" font-size="14.00">extract_components&lt;Camera2d&gt;</text>
</a>
</g>
</g>
<!-- schedule_bevy_render::extract_component::extract_components&lt;bevy_core_pipeline::core_3d::camera_3d::Camera3d&gt;_8 -->
<g id="node10" class="node">
<title>schedule_bevy_render::extract_component::extract_components&lt;bevy_core_pipeline::core_3d::camera_3d::Camera3d&gt;_8</title>
<g id="a_node10"><a xlink:title="Components [Camera3d]&#10;">
<polygon fill="#eff1f3" stroke="#eff1f3" points="318,-705.5 99,-705.5 99,-676.5 318,-676.5 318,-705.5"/>
<text text-anchor="middle" x="208.5" y="-687.3" font-family="Times,serif" font-size="14.00">extract_components&lt;Camera3d&gt;</text>
</a>
</g>
</g>
<!-- schedule_bevy_render::extract_component::extract_components&lt;bevy_ui::entity::CameraUi&gt;_9 -->
<g id="node11" class="node">
<title>schedule_bevy_render::extract_component::extract_components&lt;bevy_ui::entity::CameraUi&gt;_9</title>
<g id="a_node11"><a xlink:title="Components [CameraUi]&#10;">
<polygon fill="#eff1f3" stroke="#eff1f3" points="317,-672.5 100,-672.5 100,-643.5 317,-643.5 317,-672.5"/>
<text text-anchor="middle" x="208.5" y="-654.3" font-family="Times,serif" font-size="14.00">extract_components&lt;CameraUi&gt;</text>
</a>
</g>
</g>
<!-- schedule_bevy_render::extract_component::extract_visible_components&lt;bevy_asset::handle::Handle&lt;bevy_pbr::pbr_material::StandardMaterial&gt;&gt;_10 -->
<g id="node12" class="node">
<title>schedule_bevy_render::extract_component::extract_visible_components&lt;bevy_asset::handle::Handle&lt;bevy_pbr::pbr_material::StandardMaterial&gt;&gt;_10</title>
<g id="a_node12"><a xlink:title="Components [ComputedVisibility, Handle&lt;StandardMaterial&gt;]&#10;">
<polygon fill="#eff1f3" stroke="#eff1f3" points="401,-639.5 16,-639.5 16,-610.5 401,-610.5 401,-639.5"/>
<text text-anchor="middle" x="208.5" y="-621.3" font-family="Times,serif" font-size="14.00">extract_visible_components&lt;Handle&lt;StandardMaterial&gt;&gt;</text>
</a>
</g>
</g>
<!-- schedule_bevy_render::extract_component::extract_visible_components&lt;bevy_asset::handle::Handle&lt;bevy_sprite::mesh2d::color_material::ColorMaterial&gt;&gt;_11 -->
<g id="node13" class="node">
<title>schedule_bevy_render::extract_component::extract_visible_components&lt;bevy_asset::handle::Handle&lt;bevy_sprite::mesh2d::color_material::ColorMaterial&gt;&gt;_11</title>
<g id="a_node13"><a xlink:title="Components [ComputedVisibility, Handle&lt;ColorMaterial&gt;]&#10;">
<polygon fill="#eff1f3" stroke="#eff1f3" points="388.5,-606.5 28.5,-606.5 28.5,-577.5 388.5,-577.5 388.5,-606.5"/>
<text text-anchor="middle" x="208.5" y="-588.3" font-family="Times,serif" font-size="14.00">extract_visible_components&lt;Handle&lt;ColorMaterial&gt;&gt;</text>
</a>
</g>
</g>
<!-- schedule_bevy_render::extract_resource::extract_resource&lt;bevy_core_pipeline::clear_color::ClearColor&gt;_12 -->
<g id="node14" class="node">
<title>schedule_bevy_render::extract_resource::extract_resource&lt;bevy_core_pipeline::clear_color::ClearColor&gt;_12</title>
<g id="a_node14"><a xlink:title="Res [ClearColor]&#10;">
<polygon fill="#eff1f3" stroke="#eff1f3" points="308,-573.5 109,-573.5 109,-544.5 308,-544.5 308,-573.5"/>
<text text-anchor="middle" x="208.5" y="-555.3" font-family="Times,serif" font-size="14.00">extract_resource&lt;ClearColor&gt;</text>
</a>
</g>
</g>
<!-- schedule_bevy_render::extract_resource::extract_resource&lt;bevy_pbr::light::AmbientLight&gt;_13 -->
<g id="node15" class="node">
<title>schedule_bevy_render::extract_resource::extract_resource&lt;bevy_pbr::light::AmbientLight&gt;_13</title>
<g id="a_node15"><a xlink:title="Res [AmbientLight]&#10;">
<polygon fill="#eff1f3" stroke="#eff1f3" points="319,-540.5 98,-540.5 98,-511.5 319,-511.5 319,-540.5"/>
<text text-anchor="middle" x="208.5" y="-522.3" font-family="Times,serif" font-size="14.00">extract_resource&lt;AmbientLight&gt;</text>
</a>
</g>
</g>
<!-- schedule_bevy_render::extract_resource::extract_resource&lt;bevy_render::view::Msaa&gt;_14 -->
<g id="node16" class="node">
<title>schedule_bevy_render::extract_resource::extract_resource&lt;bevy_render::view::Msaa&gt;_14</title>
<g id="a_node16"><a xlink:title="Res [Msaa]&#10;">
<polygon fill="#eff1f3" stroke="#eff1f3" points="290.5,-507.5 126.5,-507.5 126.5,-478.5 290.5,-478.5 290.5,-507.5"/>
<text text-anchor="middle" x="208.5" y="-489.3" font-family="Times,serif" font-size="14.00">extract_resource&lt;Msaa&gt;</text>
</a>
</g>
</g>
<!-- schedule_bevy_render::render_asset::extract_render_asset&lt;bevy_pbr::pbr_material::StandardMaterial&gt;_15 -->
<g id="node17" class="node">
<title>schedule_bevy_render::render_asset::extract_render_asset&lt;bevy_pbr::pbr_material::StandardMaterial&gt;_15</title>
<g id="a_node17"><a xlink:title="Res [Assets&lt;StandardMaterial&gt;, Events&lt;AssetEvent&lt;StandardMaterial&gt;&gt;]&#10;">
<polygon fill="#eff1f3" stroke="#eff1f3" points="346,-474.5 71,-474.5 71,-445.5 346,-445.5 346,-474.5"/>
<text text-anchor="middle" x="208.5" y="-456.3" font-family="Times,serif" font-size="14.00">extract_render_asset&lt;StandardMaterial&gt;</text>
</a>
</g>
</g>
<!-- schedule_bevy_render::render_asset::extract_render_asset&lt;bevy_render::mesh::mesh::Mesh&gt;_16 -->
<g id="node18" class="node">
<title>schedule_bevy_render::render_asset::extract_render_asset&lt;bevy_render::mesh::mesh::Mesh&gt;_16</title>
<g id="a_node18"><a xlink:title="Res [Assets&lt;Mesh&gt;, Events&lt;AssetEvent&lt;Mesh&gt;&gt;]&#10;">
<polygon fill="#eff1f3" stroke="#eff1f3" points="304,-441.5 113,-441.5 113,-412.5 304,-412.5 304,-441.5"/>
<text text-anchor="middle" x="208.5" y="-423.3" font-family="Times,serif" font-size="14.00">extract_render_asset&lt;Mesh&gt;</text>
</a>
</g>
</g>
<!-- schedule_bevy_render::render_asset::extract_render_asset&lt;bevy_render::texture::image::Image&gt;_17 -->
<g id="node19" class="node">
<title>schedule_bevy_render::render_asset::extract_render_asset&lt;bevy_render::texture::image::Image&gt;_17</title>
<g id="a_node19"><a xlink:title="Res [Assets&lt;Image&gt;, Events&lt;AssetEvent&lt;Image&gt;&gt;]&#10;">
<polygon fill="#eff1f3" stroke="#eff1f3" points="307,-408.5 110,-408.5 110,-379.5 307,-379.5 307,-408.5"/>
<text text-anchor="middle" x="208.5" y="-390.3" font-family="Times,serif" font-size="14.00">extract_render_asset&lt;Image&gt;</text>
</a>
</g>
</g>
<!-- schedule_bevy_render::render_asset::extract_render_asset&lt;bevy_sprite::mesh2d::color_material::ColorMaterial&gt;_18 -->
<g id="node20" class="node">
<title>schedule_bevy_render::render_asset::extract_render_asset&lt;bevy_sprite::mesh2d::color_material::ColorMaterial&gt;_18</title>
<g id="a_node20"><a xlink:title="Res [Assets&lt;ColorMaterial&gt;, Events&lt;AssetEvent&lt;ColorMaterial&gt;&gt;]&#10;">
<polygon fill="#eff1f3" stroke="#eff1f3" points="333.5,-375.5 83.5,-375.5 83.5,-346.5 333.5,-346.5 333.5,-375.5"/>
<text text-anchor="middle" x="208.5" y="-357.3" font-family="Times,serif" font-size="14.00">extract_render_asset&lt;ColorMaterial&gt;</text>
</a>
</g>
</g>
<!-- schedule_bevy_render::render_resource::pipeline_cache::PipelineCache::extract_shaders_19 -->
<g id="node21" class="node">
<title>schedule_bevy_render::render_resource::pipeline_cache::PipelineCache::extract_shaders_19</title>
<g id="a_node21"><a xlink:title="Res [Assets&lt;Shader&gt;, Events&lt;AssetEvent&lt;Shader&gt;&gt;]&#10;ResMut [RenderWorld]&#10;">
<polygon fill="#eff1f3" stroke="#eff1f3" points="261.5,-342.5 155.5,-342.5 155.5,-313.5 261.5,-313.5 261.5,-342.5"/>
<text text-anchor="middle" x="208.5" y="-324.3" font-family="Times,serif" font-size="14.00">extract_shaders</text>
</a>
</g>
</g>
<!-- schedule_bevy_render::view::window::extract_windows_20 -->
<g id="node22" class="node">
<title>schedule_bevy_render::view::window::extract_windows_20</title>
<g id="a_node22"><a xlink:title="Res [Events&lt;WindowClosed&gt;, Windows]&#10;ResMut [RenderWorld]&#10;">
<polygon fill="#eff1f3" stroke="#eff1f3" points="266,-309.5 151,-309.5 151,-280.5 266,-280.5 266,-309.5"/>
<text text-anchor="middle" x="208.5" y="-291.3" font-family="Times,serif" font-size="14.00">extract_windows</text>
</a>
</g>
</g>
<!-- schedule_bevy_sprite::mesh2d::mesh::extract_mesh2d_21 -->
<g id="node23" class="node">
<title>schedule_bevy_sprite::mesh2d::mesh::extract_mesh2d_21</title>
<g id="a_node23"><a xlink:title="Components [GlobalTransform, ComputedVisibility, Mesh2dHandle]&#10;">
<polygon fill="#eff1f3" stroke="#eff1f3" points="261.5,-276.5 155.5,-276.5 155.5,-247.5 261.5,-247.5 261.5,-276.5"/>
<text text-anchor="middle" x="208.5" y="-258.3" font-family="Times,serif" font-size="14.00">extract_mesh2d</text>
</a>
</g>
</g>
<!-- schedule_bevy_sprite::render::extract_sprite_events_22 -->
<g id="node24" class="node">
<title>schedule_bevy_sprite::render::extract_sprite_events_22</title>
<g id="a_node24"><a xlink:title="Res [Events&lt;AssetEvent&lt;Image&gt;&gt;]&#10;ResMut [RenderWorld]&#10;">
<polygon fill="#eff1f3" stroke="#eff1f3" points="280,-243.5 137,-243.5 137,-214.5 280,-214.5 280,-243.5"/>
<text text-anchor="middle" x="208.5" y="-225.3" font-family="Times,serif" font-size="14.00">extract_sprite_events</text>
</a>
</g>
</g>
<!-- schedule_bevy_sprite::render::extract_sprites_23 -->
<g id="node25" class="node">
<title>schedule_bevy_sprite::render::extract_sprites_23</title>
<g id="a_node25"><a xlink:title="Components [GlobalTransform, Visibility, Sprite, Handle&lt;Image&gt;, TextureAtlasSprite, Handle&lt;TextureAtlas&gt;]&#10;Res [Assets&lt;TextureAtlas&gt;]&#10;ResMut [RenderWorld]&#10;">
<polygon fill="#eff1f3" stroke="#eff1f3" points="258,-210.5 159,-210.5 159,-181.5 258,-181.5 258,-210.5"/>
<text text-anchor="middle" x="208.5" y="-192.3" font-family="Times,serif" font-size="14.00">extract_sprites</text>
</a>
</g>
</g>
<!-- schedule_bevy_text::text2d::extract_text2d_sprite_24 -->
<g id="node26" class="node">
<title>schedule_bevy_text::text2d::extract_text2d_sprite_24</title>
<g id="a_node26"><a xlink:title="Components [GlobalTransform, Visibility, Text, Text2dSize]&#10;Res [Windows, Assets&lt;TextureAtlas&gt;, TextPipeline&lt;Entity&gt;]&#10;ResMut [RenderWorld]&#10;">
<polygon fill="#eff1f3" stroke="#eff1f3" points="279.5,-177.5 137.5,-177.5 137.5,-148.5 279.5,-148.5 279.5,-177.5"/>
<text text-anchor="middle" x="208.5" y="-159.3" font-family="Times,serif" font-size="14.00">extract_text2d_sprite</text>
</a>
</g>
</g>
<!-- schedule_bevy_sprite::render::extract_sprites_23&#45;&gt;schedule_bevy_text::text2d::extract_text2d_sprite_24 -->
<g id="edge1" class="edge">
<title>schedule_bevy_sprite::render::extract_sprites_23&#45;&gt;schedule_bevy_text::text2d::extract_text2d_sprite_24</title>
<path fill="none" stroke="white" d="M208.5,-181.41C208.5,-181.26 208.5,-181.1 208.5,-180.95"/>
<polygon fill="white" stroke="white" points="212,-187.7 208.5,-177.7 205,-187.7 212,-187.7"/>
</g>
<!-- schedule_bevy_ui::render::extract_default_ui_camera_view&lt;bevy_core_pipeline::core_2d::camera_2d::Camera2d&gt;_25 -->
<g id="node27" class="node">
<title>schedule_bevy_ui::render::extract_default_ui_camera_view&lt;bevy_core_pipeline::core_2d::camera_2d::Camera2d&gt;_25</title>
<g id="a_node27"><a xlink:title="Components [Camera, CameraUi]&#10;Res [RenderWorld]&#10;">
<polygon fill="#eff1f3" stroke="#eff1f3" points="359,-144.5 58,-144.5 58,-115.5 359,-115.5 359,-144.5"/>
<text text-anchor="middle" x="208.5" y="-126.3" font-family="Times,serif" font-size="14.00">extract_default_ui_camera_view&lt;Camera2d&gt;</text>
</a>
</g>
</g>
<!-- schedule_bevy_ui::render::extract_default_ui_camera_view&lt;bevy_core_pipeline::core_3d::camera_3d::Camera3d&gt;_26 -->
<g id="node28" class="node">
<title>schedule_bevy_ui::render::extract_default_ui_camera_view&lt;bevy_core_pipeline::core_3d::camera_3d::Camera3d&gt;_26</title>
<g id="a_node28"><a xlink:title="Components [Camera, CameraUi]&#10;Res [RenderWorld]&#10;">
<polygon fill="#eff1f3" stroke="#eff1f3" points="359,-111.5 58,-111.5 58,-82.5 359,-82.5 359,-111.5"/>
<text text-anchor="middle" x="208.5" y="-93.3" font-family="Times,serif" font-size="14.00">extract_default_ui_camera_view&lt;Camera3d&gt;</text>
</a>
</g>
</g>
<!-- schedule_bevy_ui::render::extract_text_uinodes_27 -->
<g id="node29" class="node">
<title>schedule_bevy_ui::render::extract_text_uinodes_27</title>
<g id="a_node29"><a xlink:title="Components [GlobalTransform, Node, CalculatedClip, Visibility, Text]&#10;Res [Windows, Assets&lt;TextureAtlas&gt;, TextPipeline&lt;Entity&gt;]&#10;ResMut [RenderWorld]&#10;">
<polygon fill="#eff1f3" stroke="#eff1f3" points="278.5,-78.5 138.5,-78.5 138.5,-49.5 278.5,-49.5 278.5,-78.5"/>
<text text-anchor="middle" x="208.5" y="-60.3" font-family="Times,serif" font-size="14.00">extract_text_uinodes</text>
</a>
</g>
</g>
<!-- schedule_bevy_ui::render::extract_uinodes_28 -->
<g id="node30" class="node">
<title>schedule_bevy_ui::render::extract_uinodes_28</title>
<g id="a_node30"><a xlink:title="Components [GlobalTransform, Node, CalculatedClip, Visibility, UiImage, UiColor]&#10;Res [Assets&lt;Image&gt;]&#10;ResMut [RenderWorld]&#10;">
<polygon fill="#eff1f3" stroke="#eff1f3" points="262,-45.5 155,-45.5 155,-16.5 262,-16.5 262,-45.5"/>
<text text-anchor="middle" x="208.5" y="-27.3" font-family="Times,serif" font-size="14.00">extract_uinodes</text>
</a>
</g>
</g>
<!-- schedule_bevy_ui::render::extract_uinodes_28&#45;&gt;schedule_bevy_ui::render::extract_text_uinodes_27 -->
<g id="edge2" class="edge">
<title>schedule_bevy_ui::render::extract_uinodes_28&#45;&gt;schedule_bevy_ui::render::extract_text_uinodes_27</title>
<path fill="none" stroke="white" d="M208.5,-45.7C208.5,-45.85 208.5,-46.01 208.5,-46.16"/>
<polygon fill="white" stroke="white" points="205,-39.41 208.5,-49.41 212,-39.41 205,-39.41"/>
</g>
<!-- MARKER_schedule_Queue -->
<!-- MARKER_schedule_Prepare&#45;&gt;MARKER_schedule_Queue -->
<g id="edge8" class="edge">
<title>MARKER_schedule_Prepare&#45;&gt;MARKER_schedule_Queue</title>
<path fill="none" stroke="white" d="M694.71,-988C743.43,-988 803.22,-988 852.68,-988"/>
<polygon fill="white" stroke="white" points="852.75,-991.5 862.75,-988 852.75,-984.5 852.75,-991.5"/>
</g>
<!-- schedule_bevy_pbr::render::light::prepare_lights_0 -->
<g id="node32" class="node">
<title>schedule_bevy_pbr::render::light::prepare_lights_0</title>
<g id="a_node32"><a xlink:title="prepare_lights">
<polygon fill="#eff1f3" stroke="#eff1f3" points="650,-969.5 553,-969.5 553,-940.5 650,-940.5 650,-969.5"/>
<text text-anchor="start" x="553" y="-957.3" font-family="Times,serif" font-size="14.00">prepare_lights</text>
<text text-anchor="start" x="556.5" y="-945.7" font-family="Times,serif" font-size="11.00" fill="red">Exclusive at start</text>
</a>
</g>
</g>
<!-- schedule_bevy_core_pipeline::core_3d::prepare_core_3d_depth_textures_0 -->
<g id="node33" class="node">
<title>schedule_bevy_core_pipeline::core_3d::prepare_core_3d_depth_textures_0</title>
<g id="a_node33"><a xlink:title="Components [ExtractedCamera]&#10;Res [RenderDevice, Msaa]&#10;ResMut [TextureCache]&#10;">
<polygon fill="#eff1f3" stroke="#eff1f3" points="711.5,-936.5 491.5,-936.5 491.5,-907.5 711.5,-907.5 711.5,-936.5"/>
<text text-anchor="middle" x="601.5" y="-918.3" font-family="Times,serif" font-size="14.00">prepare_core_3d_depth_textures</text>
</a>
</g>
</g>
<!-- schedule_bevy_pbr::render::light::prepare_clusters_1 -->
<g id="node34" class="node">
<title>schedule_bevy_pbr::render::light::prepare_clusters_1</title>
<g id="a_node34"><a xlink:title="Components [ExtractedClusterConfig, ExtractedClustersPointLights]&#10;Res [RenderDevice, Arc&lt;Queue&gt;, MeshPipeline, GlobalLightMeta]&#10;">
<polygon fill="#eff1f3" stroke="#eff1f3" points="657.5,-903.5 545.5,-903.5 545.5,-874.5 657.5,-874.5 657.5,-903.5"/>
<text text-anchor="middle" x="601.5" y="-885.3" font-family="Times,serif" font-size="14.00">prepare_clusters</text>
</a>
</g>
</g>
<!-- schedule_bevy_pbr::render::mesh::prepare_skinned_meshes_2 -->
<g id="node35" class="node">
<title>schedule_bevy_pbr::render::mesh::prepare_skinned_meshes_2</title>
<g id="a_node35"><a xlink:title="Res [RenderDevice, Arc&lt;Queue&gt;, ExtractedJoints]&#10;ResMut [SkinnedMeshUniform]&#10;">
<polygon fill="#eff1f3" stroke="#eff1f3" points="686,-870.5 517,-870.5 517,-841.5 686,-841.5 686,-870.5"/>
<text text-anchor="middle" x="601.5" y="-852.3" font-family="Times,serif" font-size="14.00">prepare_skinned_meshes</text>
</a>
</g>
</g>
<!-- schedule_bevy_render::extract_component::prepare_uniform_components&lt;bevy_pbr::render::mesh::MeshUniform&gt;_3 -->
<g id="node36" class="node">
<title>schedule_bevy_render::extract_component::prepare_uniform_components&lt;bevy_pbr::render::mesh::MeshUniform&gt;_3</title>
<g id="a_node36"><a xlink:title="Components [MeshUniform]&#10;Res [RenderDevice, Arc&lt;Queue&gt;]&#10;ResMut [ComponentUniforms&lt;MeshUniform&gt;]&#10;">
<polygon fill="#eff1f3" stroke="#eff1f3" points="758,-837.5 445,-837.5 445,-808.5 758,-808.5 758,-837.5"/>
<text text-anchor="middle" x="601.5" y="-819.3" font-family="Times,serif" font-size="14.00">prepare_uniform_components&lt;MeshUniform&gt;</text>
</a>
</g>
</g>
<!-- schedule_bevy_render::extract_component::prepare_uniform_components&lt;bevy_sprite::mesh2d::mesh::Mesh2dUniform&gt;_4 -->
<g id="node37" class="node">
<title>schedule_bevy_render::extract_component::prepare_uniform_components&lt;bevy_sprite::mesh2d::mesh::Mesh2dUniform&gt;_4</title>
<g id="a_node37"><a xlink:title="Components [Mesh2dUniform]&#10;Res [RenderDevice, Arc&lt;Queue&gt;]&#10;ResMut [ComponentUniforms&lt;Mesh2dUniform&gt;]&#10;">
<polygon fill="#eff1f3" stroke="#eff1f3" points="766,-804.5 437,-804.5 437,-775.5 766,-775.5 766,-804.5"/>
<text text-anchor="middle" x="601.5" y="-786.3" font-family="Times,serif" font-size="14.00">prepare_uniform_components&lt;Mesh2dUniform&gt;</text>
</a>
</g>
</g>
<!-- schedule_bevy_render::render_asset::prepare_assets&lt;bevy_pbr::pbr_material::StandardMaterial&gt;_5 -->
<g id="node38" class="node">
<title>schedule_bevy_render::render_asset::prepare_assets&lt;bevy_pbr::pbr_material::StandardMaterial&gt;_5</title>
<g id="a_node38"><a xlink:title="Res [RenderDevice, HashMap&lt;Handle&lt;Image&gt;, GpuImage&gt;, MaterialPipeline&lt;StandardMaterial&gt;]&#10;ResMut [ExtractedAssets&lt;StandardMaterial&gt;, HashMap&lt;Handle&lt;StandardMaterial&gt;, GpuStandardMaterial&gt;, PrepareNextFrameAssets&lt;StandardMaterial&gt;]&#10;">
<polygon fill="#eff1f3" stroke="#eff1f3" points="719,-771.5 484,-771.5 484,-742.5 719,-742.5 719,-771.5"/>
<text text-anchor="middle" x="601.5" y="-753.3" font-family="Times,serif" font-size="14.00">prepare_assets&lt;StandardMaterial&gt;</text>
</a>
</g>
</g>
<!-- schedule_bevy_render::render_asset::prepare_assets&lt;bevy_render::texture::image::Image&gt;_7 -->
<g id="node39" class="node">
<title>schedule_bevy_render::render_asset::prepare_assets&lt;bevy_render::texture::image::Image&gt;_7</title>
<g id="a_node39"><a xlink:title="Res [RenderDevice, Arc&lt;Queue&gt;]&#10;ResMut [ExtractedAssets&lt;Image&gt;, HashMap&lt;Handle&lt;Image&gt;, GpuImage&gt;, PrepareNextFrameAssets&lt;Image&gt;]&#10;">
<polygon fill="#eff1f3" stroke="#eff1f3" points="680,-738.5 523,-738.5 523,-709.5 680,-709.5 680,-738.5"/>
<text text-anchor="middle" x="601.5" y="-720.3" font-family="Times,serif" font-size="14.00">prepare_assets&lt;Image&gt;</text>
</a>
</g>
</g>
<!-- schedule_bevy_render::render_asset::prepare_assets&lt;bevy_render::texture::image::Image&gt;_7&#45;&gt;schedule_bevy_render::render_asset::prepare_assets&lt;bevy_pbr::pbr_material::StandardMaterial&gt;_5 -->
<g id="edge3" class="edge">
<title>schedule_bevy_render::render_asset::prepare_assets&lt;bevy_render::texture::image::Image&gt;_7&#45;&gt;schedule_bevy_render::render_asset::prepare_assets&lt;bevy_pbr::pbr_material::StandardMaterial&gt;_5</title>
<path fill="none" stroke="white" d="M601.5,-738.7C601.5,-738.85 601.5,-739.01 601.5,-739.16"/>
<polygon fill="white" stroke="white" points="598,-732.41 601.5,-742.41 605,-732.41 598,-732.41"/>
</g>
<!-- schedule_bevy_render::render_asset::prepare_assets&lt;bevy_render::mesh::mesh::Mesh&gt;_6 -->
<g id="node40" class="node">
<title>schedule_bevy_render::render_asset::prepare_assets&lt;bevy_render::mesh::mesh::Mesh&gt;_6</title>
<g id="a_node40"><a xlink:title="Res [RenderDevice]&#10;ResMut [ExtractedAssets&lt;Mesh&gt;, HashMap&lt;Handle&lt;Mesh&gt;, GpuMesh&gt;, PrepareNextFrameAssets&lt;Mesh&gt;]&#10;">
<polygon fill="#eff1f3" stroke="#eff1f3" points="677,-705.5 526,-705.5 526,-676.5 677,-676.5 677,-705.5"/>
<text text-anchor="middle" x="601.5" y="-687.3" font-family="Times,serif" font-size="14.00">prepare_assets&lt;Mesh&gt;</text>
</a>
</g>
</g>
<!-- schedule_bevy_render::render_asset::prepare_assets&lt;bevy_render::texture::image::Image&gt;_7&#45;&gt;schedule_bevy_render::render_asset::prepare_assets&lt;bevy_render::mesh::mesh::Mesh&gt;_6 -->
<g id="edge4" class="edge">
<title>schedule_bevy_render::render_asset::prepare_assets&lt;bevy_render::texture::image::Image&gt;_7&#45;&gt;schedule_bevy_render::render_asset::prepare_assets&lt;bevy_render::mesh::mesh::Mesh&gt;_6</title>
<path fill="none" stroke="white" d="M601.5,-709.41C601.5,-709.26 601.5,-709.1 601.5,-708.95"/>
<polygon fill="white" stroke="white" points="605,-715.7 601.5,-705.7 598,-715.7 605,-715.7"/>
</g>
<!-- schedule_bevy_render::render_asset::prepare_assets&lt;bevy_sprite::mesh2d::color_material::ColorMaterial&gt;_8 -->
<g id="node41" class="node">
<title>schedule_bevy_render::render_asset::prepare_assets&lt;bevy_sprite::mesh2d::color_material::ColorMaterial&gt;_8</title>
<g id="a_node41"><a xlink:title="Res [RenderDevice, HashMap&lt;Handle&lt;Image&gt;, GpuImage&gt;, Material2dPipeline&lt;ColorMaterial&gt;]&#10;ResMut [ExtractedAssets&lt;ColorMaterial&gt;, HashMap&lt;Handle&lt;ColorMaterial&gt;, GpuColorMaterial&gt;, PrepareNextFrameAssets&lt;ColorMaterial&gt;]&#10;">
<polygon fill="#eff1f3" stroke="#eff1f3" points="706,-672.5 497,-672.5 497,-643.5 706,-643.5 706,-672.5"/>
<text text-anchor="middle" x="601.5" y="-654.3" font-family="Times,serif" font-size="14.00">prepare_assets&lt;ColorMaterial&gt;</text>
</a>
</g>
</g>
<!-- schedule_bevy_render::render_asset::prepare_assets&lt;bevy_render::texture::image::Image&gt;_7&#45;&gt;schedule_bevy_render::render_asset::prepare_assets&lt;bevy_sprite::mesh2d::color_material::ColorMaterial&gt;_8 -->
<g id="edge5" class="edge">
<title>schedule_bevy_render::render_asset::prepare_assets&lt;bevy_render::texture::image::Image&gt;_7&#45;&gt;schedule_bevy_render::render_asset::prepare_assets&lt;bevy_sprite::mesh2d::color_material::ColorMaterial&gt;_8</title>
<path fill="none" stroke="white" d="M522.7,-738.09C485.21,-739.87 443.35,-733.7 419,-704 393.12,-672.43 435.96,-660.72 486.61,-657"/>
<polygon fill="white" stroke="white" points="487.06,-660.48 496.82,-656.36 486.62,-653.49 487.06,-660.48"/>
</g>
<!-- schedule_bevy_render::view::prepare_view_targets_9 -->
<g id="node42" class="node">
<title>schedule_bevy_render::view::prepare_view_targets_9</title>
<g id="a_node42"><a xlink:title="Components [ExtractedCamera]&#10;Res [RenderDevice, ExtractedWindows, HashMap&lt;Handle&lt;Image&gt;, GpuImage&gt;, Msaa]&#10;ResMut [TextureCache]&#10;">
<polygon fill="#eff1f3" stroke="#eff1f3" points="674.5,-639.5 528.5,-639.5 528.5,-610.5 674.5,-610.5 674.5,-639.5"/>
<text text-anchor="middle" x="601.5" y="-621.3" font-family="Times,serif" font-size="14.00">prepare_view_targets</text>
</a>
</g>
</g>
<!-- schedule_bevy_render::view::window::prepare_windows_11 -->
<g id="node43" class="node">
<title>schedule_bevy_render::view::window::prepare_windows_11</title>
<g id="a_node43"><a xlink:title="Res [Instance, RenderDevice, NonSendMarker]&#10;ResMut [ExtractedWindows, WindowSurfaces]&#10;">
<polygon fill="#eff1f3" stroke="#eff1f3" points="662,-606.5 541,-606.5 541,-577.5 662,-577.5 662,-606.5"/>
<text text-anchor="middle" x="601.5" y="-588.3" font-family="Times,serif" font-size="14.00">prepare_windows</text>
</a>
</g>
</g>
<!-- schedule_bevy_render::view::window::prepare_windows_11&#45;&gt;schedule_bevy_render::view::prepare_view_targets_9 -->
<g id="edge6" class="edge">
<title>schedule_bevy_render::view::window::prepare_windows_11&#45;&gt;schedule_bevy_render::view::prepare_view_targets_9</title>
<path fill="none" stroke="white" d="M601.5,-606.7C601.5,-606.85 601.5,-607.01 601.5,-607.16"/>
<polygon fill="white" stroke="white" points="598,-600.41 601.5,-610.41 605,-600.41 598,-600.41"/>
</g>
<!-- schedule_bevy_render::view::prepare_view_uniforms_10 -->
<g id="node44" class="node">
<title>schedule_bevy_render::view::prepare_view_uniforms_10</title>
<g id="a_node44"><a xlink:title="Components [ExtractedView]&#10;Res [RenderDevice, Arc&lt;Queue&gt;]&#10;ResMut [ViewUniforms]&#10;">
<polygon fill="#eff1f3" stroke="#eff1f3" points="682.5,-573.5 520.5,-573.5 520.5,-544.5 682.5,-544.5 682.5,-573.5"/>
<text text-anchor="middle" x="601.5" y="-555.3" font-family="Times,serif" font-size="14.00">prepare_view_uniforms</text>
</a>
</g>
</g>
<!-- schedule_bevy_ui::render::prepare_uinodes_12 -->
<g id="node45" class="node">
<title>schedule_bevy_ui::render::prepare_uinodes_12</title>
<g id="a_node45"><a xlink:title="Res [RenderDevice, Arc&lt;Queue&gt;]&#10;ResMut [UiMeta, ExtractedUiNodes]&#10;">
<polygon fill="#eff1f3" stroke="#eff1f3" points="658,-540.5 545,-540.5 545,-511.5 658,-511.5 658,-540.5"/>
<text text-anchor="middle" x="601.5" y="-522.3" font-family="Times,serif" font-size="14.00">prepare_uinodes</text>
</a>
</g>
</g>
<!-- MARKER_schedule_PhaseSort -->
<!-- MARKER_schedule_Queue&#45;&gt;MARKER_schedule_PhaseSort -->
<g id="edge9" class="edge">
<title>MARKER_schedule_Queue&#45;&gt;MARKER_schedule_PhaseSort</title>
<path fill="none" stroke="white" d="M1039.03,-988C1073.82,-988 1114.28,-988 1151,-988"/>
<polygon fill="white" stroke="white" points="1151.25,-991.5 1161.25,-988 1151.25,-984.5 1151.25,-991.5"/>
</g>
<!-- schedule_bevy_pbr::material::queue_material_meshes&lt;bevy_pbr::pbr_material::StandardMaterial&gt;_0 -->
<g id="node47" class="node">
<title>schedule_bevy_pbr::material::queue_material_meshes&lt;bevy_pbr::pbr_material::StandardMaterial&gt;_0</title>
<g id="a_node47"><a xlink:title="Components [ExtractedView, Handle&lt;StandardMaterial&gt;, Handle&lt;Mesh&gt;, MeshUniform, VisibleEntities]&#10;ComponentsMut [RenderPhase&lt;Opaque3d&gt;, RenderPhase&lt;AlphaMask3d&gt;, RenderPhase&lt;Transparent3d&gt;]&#10;Res [HashMap&lt;Handle&lt;Mesh&gt;, GpuMesh&gt;, DrawFunctions&lt;Opaque3d&gt;, DrawFunctions&lt;AlphaMask3d&gt;, DrawFunctions&lt;Transparent3d&gt;, HashMap&lt;Handle&lt;StandardMaterial&gt;, GpuStandardMaterial&gt;, MaterialPipeline&lt;StandardMaterial&gt;, Msaa]&#10;ResMut [PipelineCache, SpecializedMeshPipelines&lt;MaterialPipeline&lt;StandardMaterial&gt;&gt;]&#10;">
<polygon fill="#eff1f3" stroke="#eff1f3" points="1100,-969.5 802,-969.5 802,-940.5 1100,-940.5 1100,-969.5"/>
<text text-anchor="middle" x="951" y="-951.3" font-family="Times,serif" font-size="14.00">queue_material_meshes&lt;StandardMaterial&gt;</text>
</a>
</g>
</g>
<!-- schedule_bevy_pbr::render::light::queue_shadow_view_bind_group_1 -->
<g id="node48" class="node">
<title>schedule_bevy_pbr::render::light::queue_shadow_view_bind_group_1</title>
<g id="a_node48"><a xlink:title="Res [RenderDevice, ViewUniforms, ShadowPipeline]&#10;ResMut [LightMeta]&#10;">
<polygon fill="#eff1f3" stroke="#eff1f3" points="1062.5,-936.5 839.5,-936.5 839.5,-907.5 1062.5,-907.5 1062.5,-936.5"/>
<text text-anchor="middle" x="951" y="-918.3" font-family="Times,serif" font-size="14.00">queue_shadow_view_bind_group</text>
</a>
</g>
</g>
<!-- schedule_bevy_pbr::render::light::queue_shadows_2 -->
<g id="node49" class="node">
<title>schedule_bevy_pbr::render::light::queue_shadows_2</title>
<g id="a_node49"><a xlink:title="Components [Handle&lt;Mesh&gt;, ViewLightEntities, CubemapVisibleEntities, VisibleEntities, LightEntity]&#10;ComponentsMut [RenderPhase&lt;Shadow&gt;]&#10;Res [HashMap&lt;Handle&lt;Mesh&gt;, GpuMesh&gt;, ShadowPipeline, DrawFunctions&lt;Shadow&gt;]&#10;ResMut [PipelineCache, SpecializedMeshPipelines&lt;ShadowPipeline&gt;]&#10;">
<polygon fill="#eff1f3" stroke="#eff1f3" points="1004,-903.5 898,-903.5 898,-874.5 1004,-874.5 1004,-903.5"/>
<text text-anchor="middle" x="951" y="-885.3" font-family="Times,serif" font-size="14.00">queue_shadows</text>
</a>
</g>
</g>
<!-- schedule_bevy_pbr::render::mesh::queue_mesh_bind_group_3 -->
<g id="node50" class="node">
<title>schedule_bevy_pbr::render::mesh::queue_mesh_bind_group_3</title>
<g id="a_node50"><a xlink:title="Res [RenderDevice, ComponentUniforms&lt;MeshUniform&gt;, MeshPipeline, SkinnedMeshUniform]&#10;">
<polygon fill="#eff1f3" stroke="#eff1f3" points="1035,-870.5 867,-870.5 867,-841.5 1035,-841.5 1035,-870.5"/>
<text text-anchor="middle" x="951" y="-852.3" font-family="Times,serif" font-size="14.00">queue_mesh_bind_group</text>
</a>
</g>
</g>
<!-- schedule_bevy_pbr::render::mesh::queue_mesh_view_bind_groups_4 -->
<g id="node51" class="node">
<title>schedule_bevy_pbr::render::mesh::queue_mesh_view_bind_groups_4</title>
<g id="a_node51"><a xlink:title="Components [ViewShadowBindings, ViewClusterBindings]&#10;Res [RenderDevice, ViewUniforms, MeshPipeline, ShadowPipeline, LightMeta, GlobalLightMeta]&#10;">
<polygon fill="#eff1f3" stroke="#eff1f3" points="1057.5,-837.5 844.5,-837.5 844.5,-808.5 1057.5,-808.5 1057.5,-837.5"/>
<text text-anchor="middle" x="951" y="-819.3" font-family="Times,serif" font-size="14.00">queue_mesh_view_bind_groups</text>
</a>
</g>
</g>
<!-- schedule_bevy_sprite::mesh2d::material::queue_material2d_meshes&lt;bevy_sprite::mesh2d::color_material::ColorMaterial&gt;_5 -->
<g id="node52" class="node">
<title>schedule_bevy_sprite::mesh2d::material::queue_material2d_meshes&lt;bevy_sprite::mesh2d::color_material::ColorMaterial&gt;_5</title>
<g id="a_node52"><a xlink:title="Components [Handle&lt;ColorMaterial&gt;, Mesh2dHandle, Mesh2dUniform, VisibleEntities]&#10;ComponentsMut [RenderPhase&lt;Transparent2d&gt;]&#10;Res [RenderDevice, HashMap&lt;Handle&lt;Mesh&gt;, GpuMesh&gt;, DrawFunctions&lt;Transparent2d&gt;, HashMap&lt;Handle&lt;ColorMaterial&gt;, GpuColorMaterial&gt;, Material2dPipeline&lt;ColorMaterial&gt;, Msaa]&#10;ResMut [PipelineCache, SpecializedMeshPipelines&lt;Material2dPipeline&lt;ColorMaterial&gt;&gt;]&#10;">
<polygon fill="#eff1f3" stroke="#eff1f3" points="1095.5,-804.5 806.5,-804.5 806.5,-775.5 1095.5,-775.5 1095.5,-804.5"/>
<text text-anchor="middle" x="951" y="-786.3" font-family="Times,serif" font-size="14.00">queue_material2d_meshes&lt;ColorMaterial&gt;</text>
</a>
</g>
</g>
<!-- schedule_bevy_sprite::mesh2d::mesh::queue_mesh2d_bind_group_6 -->
<g id="node53" class="node">
<title>schedule_bevy_sprite::mesh2d::mesh::queue_mesh2d_bind_group_6</title>
<g id="a_node53"><a xlink:title="Res [RenderDevice, ComponentUniforms&lt;Mesh2dUniform&gt;, Mesh2dPipeline]&#10;">
<polygon fill="#eff1f3" stroke="#eff1f3" points="1043,-771.5 859,-771.5 859,-742.5 1043,-742.5 1043,-771.5"/>
<text text-anchor="middle" x="951" y="-753.3" font-family="Times,serif" font-size="14.00">queue_mesh2d_bind_group</text>
</a>
</g>
</g>
<!-- schedule_bevy_sprite::mesh2d::mesh::queue_mesh2d_view_bind_groups_7 -->
<g id="node54" class="node">
<title>schedule_bevy_sprite::mesh2d::mesh::queue_mesh2d_view_bind_groups_7</title>
<g id="a_node54"><a xlink:title="Res [RenderDevice, ViewUniforms, Mesh2dPipeline]&#10;">
<polygon fill="#eff1f3" stroke="#eff1f3" points="1065.5,-738.5 836.5,-738.5 836.5,-709.5 1065.5,-709.5 1065.5,-738.5"/>
<text text-anchor="middle" x="951" y="-720.3" font-family="Times,serif" font-size="14.00">queue_mesh2d_view_bind_groups</text>
</a>
</g>
</g>
<!-- schedule_bevy_sprite::render::queue_sprites_8 -->
<g id="node55" class="node">
<title>schedule_bevy_sprite::render::queue_sprites_8</title>
<g id="a_node55"><a xlink:title="ComponentsMut [RenderPhase&lt;Transparent2d&gt;]&#10;Res [RenderDevice, Arc&lt;Queue&gt;, ViewUniforms, HashMap&lt;Handle&lt;Image&gt;, GpuImage&gt;, DrawFunctions&lt;Transparent2d&gt;, SpritePipeline, SpriteAssetEvents, Msaa]&#10;ResMut [PipelineCache, ImageBindGroups, SpecializedRenderPipelines&lt;SpritePipeline&gt;, SpriteMeta, ExtractedSprites]&#10;">
<polygon fill="#eff1f3" stroke="#eff1f3" points="997.5,-705.5 904.5,-705.5 904.5,-676.5 997.5,-676.5 997.5,-705.5"/>
<text text-anchor="middle" x="951" y="-687.3" font-family="Times,serif" font-size="14.00">queue_sprites</text>
</a>
</g>
</g>
<!-- schedule_bevy_ui::render::queue_uinodes_9 -->
<g id="node56" class="node">
<title>schedule_bevy_ui::render::queue_uinodes_9</title>
<g id="a_node56"><a xlink:title="Components [UiBatch]&#10;ComponentsMut [RenderPhase&lt;TransparentUi&gt;]&#10;Res [RenderDevice, ViewUniforms, HashMap&lt;Handle&lt;Image&gt;, GpuImage&gt;, SpriteAssetEvents, UiPipeline, DrawFunctions&lt;TransparentUi&gt;]&#10;ResMut [PipelineCache, SpecializedRenderPipelines&lt;UiPipeline&gt;, UiImageBindGroups, UiMeta]&#10;">
<polygon fill="#eff1f3" stroke="#eff1f3" points="1001.5,-672.5 900.5,-672.5 900.5,-643.5 1001.5,-643.5 1001.5,-672.5"/>
<text text-anchor="middle" x="951" y="-654.3" font-family="Times,serif" font-size="14.00">queue_uinodes</text>
</a>
</g>
</g>
<!-- MARKER_schedule_Render -->
<!-- MARKER_schedule_PhaseSort&#45;&gt;MARKER_schedule_Render -->
<g id="edge10" class="edge">
<title>MARKER_schedule_PhaseSort&#45;&gt;MARKER_schedule_Render</title>
<path fill="none" stroke="white" d="M1360.68,-988C1382.4,-988 1405.42,-988 1427.19,-988"/>
<polygon fill="white" stroke="white" points="1427.43,-991.5 1437.43,-988 1427.43,-984.5 1427.43,-991.5"/>
</g>
<!-- schedule_bevy_render::render_phase::batch_phase_system&lt;bevy_core_pipeline::core_2d::Transparent2d&gt;_0 -->
<g id="node58" class="node">
<title>schedule_bevy_render::render_phase::batch_phase_system&lt;bevy_core_pipeline::core_2d::Transparent2d&gt;_0</title>
<g id="a_node58"><a xlink:title="ComponentsMut [RenderPhase&lt;Transparent2d&gt;]&#10;">
<polygon fill="#eff1f3" stroke="#eff1f3" points="1386,-969.5 1136,-969.5 1136,-940.5 1386,-940.5 1386,-969.5"/>
<text text-anchor="middle" x="1261" y="-951.3" font-family="Times,serif" font-size="14.00">batch_phase_system&lt;Transparent2d&gt;</text>
</a>
</g>
</g>
<!-- schedule_bevy_render::render_phase::sort_phase_system&lt;bevy_core_pipeline::core_2d::Transparent2d&gt;_1 -->
<g id="node59" class="node">
<title>schedule_bevy_render::render_phase::sort_phase_system&lt;bevy_core_pipeline::core_2d::Transparent2d&gt;_1</title>
<g id="a_node59"><a xlink:title="ComponentsMut [RenderPhase&lt;Transparent2d&gt;]&#10;">
<polygon fill="#eff1f3" stroke="#eff1f3" points="1380.5,-936.5 1141.5,-936.5 1141.5,-907.5 1380.5,-907.5 1380.5,-936.5"/>
<text text-anchor="middle" x="1261" y="-918.3" font-family="Times,serif" font-size="14.00">sort_phase_system&lt;Transparent2d&gt;</text>
</a>
</g>
</g>
<!-- schedule_bevy_render::render_phase::sort_phase_system&lt;bevy_core_pipeline::core_3d::AlphaMask3d&gt;_2 -->
<g id="node60" class="node">
<title>schedule_bevy_render::render_phase::sort_phase_system&lt;bevy_core_pipeline::core_3d::AlphaMask3d&gt;_2</title>
<g id="a_node60"><a xlink:title="ComponentsMut [RenderPhase&lt;AlphaMask3d&gt;]&#10;">
<polygon fill="#eff1f3" stroke="#eff1f3" points="1377,-903.5 1145,-903.5 1145,-874.5 1377,-874.5 1377,-903.5"/>
<text text-anchor="middle" x="1261" y="-885.3" font-family="Times,serif" font-size="14.00">sort_phase_system&lt;AlphaMask3d&gt;</text>
</a>
</g>
</g>
<!-- schedule_bevy_render::render_phase::sort_phase_system&lt;bevy_core_pipeline::core_3d::Opaque3d&gt;_3 -->
<g id="node61" class="node">
<title>schedule_bevy_render::render_phase::sort_phase_system&lt;bevy_core_pipeline::core_3d::Opaque3d&gt;_3</title>
<g id="a_node61"><a xlink:title="ComponentsMut [RenderPhase&lt;Opaque3d&gt;]&#10;">
<polygon fill="#eff1f3" stroke="#eff1f3" points="1365,-870.5 1157,-870.5 1157,-841.5 1365,-841.5 1365,-870.5"/>
<text text-anchor="middle" x="1261" y="-852.3" font-family="Times,serif" font-size="14.00">sort_phase_system&lt;Opaque3d&gt;</text>
</a>
</g>
</g>
<!-- schedule_bevy_render::render_phase::sort_phase_system&lt;bevy_core_pipeline::core_3d::Transparent3d&gt;_4 -->
<g id="node62" class="node">
<title>schedule_bevy_render::render_phase::sort_phase_system&lt;bevy_core_pipeline::core_3d::Transparent3d&gt;_4</title>
<g id="a_node62"><a xlink:title="ComponentsMut [RenderPhase&lt;Transparent3d&gt;]&#10;">
<polygon fill="#eff1f3" stroke="#eff1f3" points="1380.5,-837.5 1141.5,-837.5 1141.5,-808.5 1380.5,-808.5 1380.5,-837.5"/>
<text text-anchor="middle" x="1261" y="-819.3" font-family="Times,serif" font-size="14.00">sort_phase_system&lt;Transparent3d&gt;</text>
</a>
</g>
</g>
<!-- schedule_bevy_render::render_phase::sort_phase_system&lt;bevy_pbr::render::light::Shadow&gt;_5 -->
<g id="node63" class="node">
<title>schedule_bevy_render::render_phase::sort_phase_system&lt;bevy_pbr::render::light::Shadow&gt;_5</title>
<g id="a_node63"><a xlink:title="ComponentsMut [RenderPhase&lt;Shadow&gt;]&#10;">
<polygon fill="#eff1f3" stroke="#eff1f3" points="1358,-804.5 1164,-804.5 1164,-775.5 1358,-775.5 1358,-804.5"/>
<text text-anchor="middle" x="1261" y="-786.3" font-family="Times,serif" font-size="14.00">sort_phase_system&lt;Shadow&gt;</text>
</a>
</g>
</g>
<!-- schedule_bevy_render::render_phase::sort_phase_system&lt;bevy_ui::render::render_pass::TransparentUi&gt;_6 -->
<g id="node64" class="node">
<title>schedule_bevy_render::render_phase::sort_phase_system&lt;bevy_ui::render::render_pass::TransparentUi&gt;_6</title>
<g id="a_node64"><a xlink:title="ComponentsMut [RenderPhase&lt;TransparentUi&gt;]&#10;">
<polygon fill="#eff1f3" stroke="#eff1f3" points="1380,-771.5 1142,-771.5 1142,-742.5 1380,-742.5 1380,-771.5"/>
<text text-anchor="middle" x="1261" y="-753.3" font-family="Times,serif" font-size="14.00">sort_phase_system&lt;TransparentUi&gt;</text>
</a>
</g>
</g>
<!-- MARKER_schedule_Cleanup -->
<!-- MARKER_schedule_Render&#45;&gt;MARKER_schedule_Cleanup -->
<g id="edge11" class="edge">
<title>MARKER_schedule_Render&#45;&gt;MARKER_schedule_Cleanup</title>
<path fill="none" stroke="white" d="M1618.74,-988C1634.59,-988 1651.2,-988 1667.37,-988"/>
<polygon fill="white" stroke="white" points="1667.37,-991.5 1677.37,-988 1667.37,-984.5 1667.37,-991.5"/>
</g>
<!-- schedule_bevy_render::render_resource::pipeline_cache::PipelineCache::process_pipeline_queue_system_0 -->
<g id="node66" class="node">
<title>schedule_bevy_render::render_resource::pipeline_cache::PipelineCache::process_pipeline_queue_system_0</title>
<g id="a_node66"><a xlink:title="ResMut [PipelineCache]&#10;">
<polygon fill="#eff1f3" stroke="#eff1f3" points="1634,-969.5 1422,-969.5 1422,-940.5 1634,-940.5 1634,-969.5"/>
<text text-anchor="middle" x="1528" y="-951.3" font-family="Times,serif" font-size="14.00">process_pipeline_queue_system</text>
</a>
</g>
</g>
<!-- schedule_bevy_render::renderer::render_system_0 -->
<g id="node67" class="node">
<title>schedule_bevy_render::renderer::render_system_0</title>
<g id="a_node67"><a xlink:title="render_system">
<polygon fill="#eff1f3" stroke="#eff1f3" points="1578,-936.5 1478,-936.5 1478,-907.5 1578,-907.5 1578,-936.5"/>
<text text-anchor="start" x="1478" y="-924.3" font-family="Times,serif" font-size="14.00">render_system</text>
<text text-anchor="start" x="1485.5" y="-912.7" font-family="Times,serif" font-size="11.00" fill="red">Exclusive at end</text>
</a>
</g>
</g>
<!-- schedule_bevy_render::texture::texture_cache::update_texture_cache_system_0 -->
<g id="node69" class="node">
<title>schedule_bevy_render::texture::texture_cache::update_texture_cache_system_0</title>
<g id="a_node69"><a xlink:title="ResMut [TextureCache]&#10;">
<polygon fill="#eff1f3" stroke="#eff1f3" points="1872,-969.5 1670,-969.5 1670,-940.5 1872,-940.5 1872,-969.5"/>
<text text-anchor="middle" x="1771" y="-951.3" font-family="Times,serif" font-size="14.00">update_texture_cache_system</text>
</a>
</g>
</g>
</g>
</svg>
