<?xml version="1.0" encoding="UTF-8" standalone="no"?>
<!DOCTYPE svg PUBLIC "-//W3C//DTD SVG 1.1//EN"
 "http://www.w3.org/Graphics/SVG/1.1/DTD/svg11.dtd">
<!-- Generated by graphviz version 4.0.0 (0)
 -->
<!-- Title: RenderGraph Pages: 1 -->
<svg width="927pt" height="572pt"
 viewBox="0.00 0.00 927.00 572.00" xmlns="http://www.w3.org/2000/svg" xmlns:xlink="http://www.w3.org/1999/xlink">
<g id="graph0" class="graph" transform="scale(1 1) rotate(0) translate(4 568)">
<title>RenderGraph</title>
<polygon fill="#35393f" stroke="transparent" points="-4,4 -4,-568 923,-568 923,4 -4,4"/>
<g id="clust1" class="cluster">
<title>cluster_core_2d</title>
<path fill="#5e6570" stroke="#5e6570" d="M20,-8C20,-8 692,-8 692,-8 698,-8 704,-14 704,-20 704,-20 704,-235 704,-235 704,-241 698,-247 692,-247 692,-247 20,-247 20,-247 14,-247 8,-241 8,-235 8,-235 8,-20 8,-20 8,-14 14,-8 20,-8"/>
<text text-anchor="middle" x="356" y="-231.8" font-family="Times,serif" font-size="14.00">core_2d</text>
</g>
<g id="clust2" class="cluster">
<title>cluster_core_2d_draw_ui</title>
<path fill="#6a83aa" stroke="#6a83aa" d="M28,-111C28,-111 484.5,-111 484.5,-111 490.5,-111 496.5,-117 496.5,-123 496.5,-123 496.5,-204 496.5,-204 496.5,-210 490.5,-216 484.5,-216 484.5,-216 28,-216 28,-216 22,-216 16,-210 16,-204 16,-204 16,-123 16,-123 16,-117 22,-111 28,-111"/>
<text text-anchor="middle" x="256.25" y="-200.8" font-family="Times,serif" font-size="14.00">draw_ui</text>
</g>
<g id="clust3" class="cluster">
<title>cluster_core_3d</title>
<path fill="#5e6570" stroke="#5e6570" d="M20,-255C20,-255 899,-255 899,-255 905,-255 911,-261 911,-267 911,-267 911,-502 911,-502 911,-508 905,-514 899,-514 899,-514 20,-514 20,-514 14,-514 8,-508 8,-502 8,-502 8,-267 8,-267 8,-261 14,-255 20,-255"/>
<text text-anchor="middle" x="459.5" y="-498.8" font-family="Times,serif" font-size="14.00">core_3d</text>
</g>
<g id="clust4" class="cluster">
<title>cluster_core_3d_draw_ui</title>
<path fill="#6a83aa" stroke="#6a83aa" d="M28,-378C28,-378 484.5,-378 484.5,-378 490.5,-378 496.5,-384 496.5,-390 496.5,-390 496.5,-471 496.5,-471 496.5,-477 490.5,-483 484.5,-483 484.5,-483 28,-483 28,-483 22,-483 16,-477 16,-471 16,-471 16,-390 16,-390 16,-384 22,-378 28,-378"/>
<text text-anchor="middle" x="256.25" y="-467.8" font-family="Times,serif" font-size="14.00">draw_ui</text>
</g>
<!-- _core_2d_draw_ui__core_2d_draw_uiGraphInputNode -->
<g id="node1" class="node">
<title>_core_2d_draw_ui__core_2d_draw_uiGraphInputNode</title>
<text text-anchor="start" x="107" y="-164.8" font-family="Helvetica,sans-Serif" font-size="14.00" fill="white">GraphInputNode</text>
<text text-anchor="start" x="123" y="-154" font-family="Helvetica,sans-Serif" font-size="10.00" fill="red">GraphInputNode</text>
<polygon fill="none" stroke="#99aab5" points="35,-126 35,-147 162,-147 162,-126 35,-126"/>
<text text-anchor="start" x="38" y="-132.8" font-family="Helvetica,sans-Serif" font-size="14.00" fill="white">view_entity: Entity</text>
<polygon fill="none" stroke="#99aab5" points="164,-126 164,-147 291,-147 291,-126 164,-126"/>
<text text-anchor="start" x="167" y="-132.8" font-family="Helvetica,sans-Serif" font-size="14.00" fill="white">view_entity: Entity</text>
<path fill="none" stroke="#99aab5" d="M44,-123.5C44,-123.5 282,-123.5 282,-123.5 288,-123.5 294,-129.5 294,-135.5 294,-135.5 294,-168.5 294,-168.5 294,-174.5 288,-180.5 282,-180.5 282,-180.5 44,-180.5 44,-180.5 38,-180.5 32,-174.5 32,-168.5 32,-168.5 32,-135.5 32,-135.5 32,-129.5 38,-123.5 44,-123.5"/>
</g>
<!-- _core_2d_draw_ui__core_2d_draw_uiui_pass -->
<g id="node2" class="node">
<title>_core_2d_draw_ui__core_2d_draw_uiui_pass</title>
<text text-anchor="start" x="407" y="-164.8" font-family="Helvetica,sans-Serif" font-size="14.00" fill="white">ui_pass</text>
<text text-anchor="start" x="403.5" y="-154" font-family="Helvetica,sans-Serif" font-size="10.00" fill="red">UiPassNode</text>
<polygon fill="none" stroke="#99aab5" points="385.5,-126 385.5,-147 467.5,-147 467.5,-126 385.5,-126"/>
<text text-anchor="start" x="388.5" y="-132.8" font-family="Helvetica,sans-Serif" font-size="14.00" fill="white">view: Entity</text>
<text text-anchor="start" x="471.5" y="-132.8" font-family="Helvetica,sans-Serif" font-size="14.00" fill="white"> </text>
<path fill="none" stroke="#99aab5" d="M394.5,-123.5C394.5,-123.5 468.5,-123.5 468.5,-123.5 474.5,-123.5 480.5,-129.5 480.5,-135.5 480.5,-135.5 480.5,-168.5 480.5,-168.5 480.5,-174.5 474.5,-180.5 468.5,-180.5 468.5,-180.5 394.5,-180.5 394.5,-180.5 388.5,-180.5 382.5,-174.5 382.5,-168.5 382.5,-168.5 382.5,-135.5 382.5,-135.5 382.5,-129.5 388.5,-123.5 394.5,-123.5"/>
</g>
<!-- _core_2d_draw_ui__core_2d_draw_uiGraphInputNode&#45;&gt;_core_2d_draw_ui__core_2d_draw_uiui_pass -->
<g id="edge1" class="edge">
<title>_core_2d_draw_ui__core_2d_draw_uiGraphInputNode:e&#45;&gt;_core_2d_draw_ui__core_2d_draw_uiui_pass:w</title>
<path fill="none" stroke="white" d="M292,-136C329.42,-136 341.29,-136 374.12,-136"/>
<polygon fill="white" stroke="white" points="374.5,-139.5 384.5,-136 374.5,-132.5 374.5,-139.5"/>
</g>
<!-- _core_2d__core_2dmain_pass -->
<g id="node3" class="node">
<title>_core_2d__core_2dmain_pass</title>
<text text-anchor="start" x="397" y="-81.8" font-family="Helvetica,sans-Serif" font-size="14.00" fill="white">main_pass</text>
<text text-anchor="start" x="391" y="-71" font-family="Helvetica,sans-Serif" font-size="10.00" fill="red">MainPass2dNode</text>
<polygon fill="none" stroke="#99aab5" points="385.5,-43 385.5,-64 467.5,-64 467.5,-43 385.5,-43"/>
<text text-anchor="start" x="388.5" y="-49.8" font-family="Helvetica,sans-Serif" font-size="14.00" fill="white">view: Entity</text>
<text text-anchor="start" x="471.5" y="-49.8" font-family="Helvetica,sans-Serif" font-size="14.00" fill="white"> </text>
<path fill="none" stroke="#99aab5" d="M394.5,-40.5C394.5,-40.5 468.5,-40.5 468.5,-40.5 474.5,-40.5 480.5,-46.5 480.5,-52.5 480.5,-52.5 480.5,-85.5 480.5,-85.5 480.5,-91.5 474.5,-97.5 468.5,-97.5 468.5,-97.5 394.5,-97.5 394.5,-97.5 388.5,-97.5 382.5,-91.5 382.5,-85.5 382.5,-85.5 382.5,-52.5 382.5,-52.5 382.5,-46.5 388.5,-40.5 394.5,-40.5"/>
</g>
<!-- _core_2d__core_2dui_pass -->
<g id="node5" class="node">
<title>_core_2d__core_2dui_pass</title>
<text text-anchor="start" x="604.5" y="-71.8" font-family="Helvetica,sans-Serif" font-size="14.00" fill="white">ui_pass</text>
<text text-anchor="start" x="575.5" y="-61" font-family="Helvetica,sans-Serif" font-size="10.00" fill="red">RunGraphOnViewNode</text>
<polygon fill="none" stroke="#99aab5" points="572.5,-33 572.5,-54 664.5,-54 664.5,-33 572.5,-33"/>
<text text-anchor="start" x="580.5" y="-39.8" font-family="Helvetica,sans-Serif" font-size="14.00" fill="white">view: Entity</text>
<text text-anchor="start" x="674" y="-39.8" font-family="Helvetica,sans-Serif" font-size="14.00" fill="white"> </text>
<path fill="none" stroke="#99aab5" d="M581,-30.5C581,-30.5 676,-30.5 676,-30.5 682,-30.5 688,-36.5 688,-42.5 688,-42.5 688,-75.5 688,-75.5 688,-81.5 682,-87.5 676,-87.5 676,-87.5 581,-87.5 581,-87.5 575,-87.5 569,-81.5 569,-75.5 569,-75.5 569,-42.5 569,-42.5 569,-36.5 575,-30.5 581,-30.5"/>
</g>
<!-- _core_2d__core_2dmain_pass&#45;&gt;_core_2d__core_2dui_pass -->
<g id="edge3" class="edge">
<title>_core_2d__core_2dmain_pass:e&#45;&gt;_core_2d__core_2dui_pass:w</title>
<path fill="none" stroke="white" d="M478.5,-80C516.5,-80 528,-71.64 561.44,-70.21"/>
<polygon fill="white" stroke="white" points="561.57,-73.71 571.5,-70 561.43,-66.71 561.57,-73.71"/>
</g>
<!-- _core_2d__core_2dGraphInputNode -->
<g id="node4" class="node">
<title>_core_2d__core_2dGraphInputNode</title>
<text text-anchor="start" x="107" y="-71.8" font-family="Helvetica,sans-Serif" font-size="14.00" fill="white">GraphInputNode</text>
<text text-anchor="start" x="123" y="-61" font-family="Helvetica,sans-Serif" font-size="10.00" fill="red">GraphInputNode</text>
<polygon fill="none" stroke="#99aab5" points="35,-33 35,-54 162,-54 162,-33 35,-33"/>
<text text-anchor="start" x="38" y="-39.8" font-family="Helvetica,sans-Serif" font-size="14.00" fill="white">view_entity: Entity</text>
<polygon fill="none" stroke="#99aab5" points="164,-33 164,-54 291,-54 291,-33 164,-33"/>
<text text-anchor="start" x="167" y="-39.8" font-family="Helvetica,sans-Serif" font-size="14.00" fill="white">view_entity: Entity</text>
<path fill="none" stroke="#99aab5" d="M44,-30.5C44,-30.5 282,-30.5 282,-30.5 288,-30.5 294,-36.5 294,-42.5 294,-42.5 294,-75.5 294,-75.5 294,-81.5 288,-87.5 282,-87.5 282,-87.5 44,-87.5 44,-87.5 38,-87.5 32,-81.5 32,-75.5 32,-75.5 32,-42.5 32,-42.5 32,-36.5 38,-30.5 44,-30.5"/>
</g>
<!-- _core_2d__core_2dGraphInputNode&#45;&gt;_core_2d__core_2dmain_pass -->
<g id="edge2" class="edge">
<title>_core_2d__core_2dGraphInputNode:e&#45;&gt;_core_2d__core_2dmain_pass:w</title>
<path fill="none" stroke="white" d="M292,-43C329.8,-43 341.23,-51.36 374.5,-52.79"/>
<polygon fill="white" stroke="white" points="374.43,-56.29 384.5,-53 374.58,-49.29 374.43,-56.29"/>
</g>
<!-- _core_2d__core_2dGraphInputNode&#45;&gt;_core_2d__core_2dui_pass -->
<g id="edge4" class="edge">
<title>_core_2d__core_2dGraphInputNode:e&#45;&gt;_core_2d__core_2dui_pass:w</title>
<path fill="none" stroke="white" d="M292,-43C329.05,-43 337.1,-31.35 374,-28 428.22,-23.08 442.32,-22.64 496.5,-28 526.63,-30.98 535.62,-40.55 561.24,-42.61"/>
<polygon fill="white" stroke="white" points="561.37,-46.12 571.5,-43 561.64,-39.12 561.37,-46.12"/>
</g>
<!-- _core_3d_draw_ui__core_3d_draw_uiGraphInputNode -->
<g id="node6" class="node">
<title>_core_3d_draw_ui__core_3d_draw_uiGraphInputNode</title>
<text text-anchor="start" x="107" y="-431.8" font-family="Helvetica,sans-Serif" font-size="14.00" fill="white">GraphInputNode</text>
<text text-anchor="start" x="123" y="-421" font-family="Helvetica,sans-Serif" font-size="10.00" fill="red">GraphInputNode</text>
<polygon fill="none" stroke="#99aab5" points="35,-393 35,-414 162,-414 162,-393 35,-393"/>
<text text-anchor="start" x="38" y="-399.8" font-family="Helvetica,sans-Serif" font-size="14.00" fill="white">view_entity: Entity</text>
<polygon fill="none" stroke="#99aab5" points="164,-393 164,-414 291,-414 291,-393 164,-393"/>
<text text-anchor="start" x="167" y="-399.8" font-family="Helvetica,sans-Serif" font-size="14.00" fill="white">view_entity: Entity</text>
<path fill="none" stroke="#99aab5" d="M44,-390.5C44,-390.5 282,-390.5 282,-390.5 288,-390.5 294,-396.5 294,-402.5 294,-402.5 294,-435.5 294,-435.5 294,-441.5 288,-447.5 282,-447.5 282,-447.5 44,-447.5 44,-447.5 38,-447.5 32,-441.5 32,-435.5 32,-435.5 32,-402.5 32,-402.5 32,-396.5 38,-390.5 44,-390.5"/>
</g>
<!-- _core_3d_draw_ui__core_3d_draw_uiui_pass -->
<g id="node7" class="node">
<title>_core_3d_draw_ui__core_3d_draw_uiui_pass</title>
<text text-anchor="start" x="407" y="-431.8" font-family="Helvetica,sans-Serif" font-size="14.00" fill="white">ui_pass</text>
<text text-anchor="start" x="403.5" y="-421" font-family="Helvetica,sans-Serif" font-size="10.00" fill="red">UiPassNode</text>
<polygon fill="none" stroke="#99aab5" points="385.5,-393 385.5,-414 467.5,-414 467.5,-393 385.5,-393"/>
<text text-anchor="start" x="388.5" y="-399.8" font-family="Helvetica,sans-Serif" font-size="14.00" fill="white">view: Entity</text>
<text text-anchor="start" x="471.5" y="-399.8" font-family="Helvetica,sans-Serif" font-size="14.00" fill="white"> </text>
<path fill="none" stroke="#99aab5" d="M394.5,-390.5C394.5,-390.5 468.5,-390.5 468.5,-390.5 474.5,-390.5 480.5,-396.5 480.5,-402.5 480.5,-402.5 480.5,-435.5 480.5,-435.5 480.5,-441.5 474.5,-447.5 468.5,-447.5 468.5,-447.5 394.5,-447.5 394.5,-447.5 388.5,-447.5 382.5,-441.5 382.5,-435.5 382.5,-435.5 382.5,-402.5 382.5,-402.5 382.5,-396.5 388.5,-390.5 394.5,-390.5"/>
</g>
<!-- _core_3d_draw_ui__core_3d_draw_uiGraphInputNode&#45;&gt;_core_3d_draw_ui__core_3d_draw_uiui_pass -->
<g id="edge5" class="edge">
<title>_core_3d_draw_ui__core_3d_draw_uiGraphInputNode:e&#45;&gt;_core_3d_draw_ui__core_3d_draw_uiui_pass:w</title>
<path fill="none" stroke="white" d="M292,-403C329.42,-403 341.29,-403 374.12,-403"/>
<polygon fill="white" stroke="white" points="374.5,-406.5 384.5,-403 374.5,-399.5 374.5,-406.5"/>
</g>
<!-- _core_3d__core_3dmain_pass -->
<g id="node8" class="node">
<title>_core_3d__core_3dmain_pass</title>
<text text-anchor="start" x="594" y="-328.8" font-family="Helvetica,sans-Serif" font-size="14.00" fill="white">main_pass</text>
<text text-anchor="start" x="588" y="-318" font-family="Helvetica,sans-Serif" font-size="10.00" fill="red">MainPass3dNode</text>
<polygon fill="none" stroke="#99aab5" points="582.5,-290 582.5,-311 664.5,-311 664.5,-290 582.5,-290"/>
<text text-anchor="start" x="585.5" y="-296.8" font-family="Helvetica,sans-Serif" font-size="14.00" fill="white">view: Entity</text>
<text text-anchor="start" x="668.5" y="-296.8" font-family="Helvetica,sans-Serif" font-size="14.00" fill="white"> </text>
<path fill="none" stroke="#99aab5" d="M591.5,-287.5C591.5,-287.5 665.5,-287.5 665.5,-287.5 671.5,-287.5 677.5,-293.5 677.5,-299.5 677.5,-299.5 677.5,-332.5 677.5,-332.5 677.5,-338.5 671.5,-344.5 665.5,-344.5 665.5,-344.5 591.5,-344.5 591.5,-344.5 585.5,-344.5 579.5,-338.5 579.5,-332.5 579.5,-332.5 579.5,-299.5 579.5,-299.5 579.5,-293.5 585.5,-287.5 591.5,-287.5"/>
</g>
<!-- _core_3d__core_3dui_pass -->
<g id="node11" class="node">
<title>_core_3d__core_3dui_pass</title>
<text text-anchor="start" x="811.5" y="-318.8" font-family="Helvetica,sans-Serif" font-size="14.00" fill="white">ui_pass</text>
<text text-anchor="start" x="782.5" y="-308" font-family="Helvetica,sans-Serif" font-size="10.00" fill="red">RunGraphOnViewNode</text>
<polygon fill="none" stroke="#99aab5" points="779.5,-280 779.5,-301 871.5,-301 871.5,-280 779.5,-280"/>
<text text-anchor="start" x="787.5" y="-286.8" font-family="Helvetica,sans-Serif" font-size="14.00" fill="white">view: Entity</text>
<text text-anchor="start" x="881" y="-286.8" font-family="Helvetica,sans-Serif" font-size="14.00" fill="white"> </text>
<path fill="none" stroke="#99aab5" d="M788,-277.5C788,-277.5 883,-277.5 883,-277.5 889,-277.5 895,-283.5 895,-289.5 895,-289.5 895,-322.5 895,-322.5 895,-328.5 889,-334.5 883,-334.5 883,-334.5 788,-334.5 788,-334.5 782,-334.5 776,-328.5 776,-322.5 776,-322.5 776,-289.5 776,-289.5 776,-283.5 782,-277.5 788,-277.5"/>
</g>
<!-- _core_3d__core_3dmain_pass&#45;&gt;_core_3d__core_3dui_pass -->
<g id="edge9" class="edge">
<title>_core_3d__core_3dmain_pass:e&#45;&gt;_core_3d__core_3dui_pass:w</title>
<path fill="none" stroke="white" d="M675.5,-327C717.9,-327 730.57,-318.5 768.33,-317.17"/>
<polygon fill="white" stroke="white" points="768.56,-320.67 778.5,-317 768.44,-313.67 768.56,-320.67"/>
</g>
<!-- _core_3d__core_3dshadow_pass -->
<g id="node9" class="node">
<title>_core_3d__core_3dshadow_pass</title>
<text text-anchor="start" x="388.5" y="-348.8" font-family="Helvetica,sans-Serif" font-size="14.00" fill="white">shadow_pass</text>
<text text-anchor="start" x="391" y="-338" font-family="Helvetica,sans-Serif" font-size="10.00" fill="red">ShadowPassNode</text>
<polygon fill="none" stroke="#99aab5" points="385.5,-310 385.5,-331 467.5,-331 467.5,-310 385.5,-310"/>
<text text-anchor="start" x="388.5" y="-316.8" font-family="Helvetica,sans-Serif" font-size="14.00" fill="white">view: Entity</text>
<text text-anchor="start" x="472" y="-316.8" font-family="Helvetica,sans-Serif" font-size="14.00" fill="white"> </text>
<path fill="none" stroke="#99aab5" d="M394,-307.5C394,-307.5 469,-307.5 469,-307.5 475,-307.5 481,-313.5 481,-319.5 481,-319.5 481,-352.5 481,-352.5 481,-358.5 475,-364.5 469,-364.5 469,-364.5 394,-364.5 394,-364.5 388,-364.5 382,-358.5 382,-352.5 382,-352.5 382,-319.5 382,-319.5 382,-313.5 388,-307.5 394,-307.5"/>
</g>
<!-- _core_3d__core_3dshadow_pass&#45;&gt;_core_3d__core_3dmain_pass -->
<g id="edge7" class="edge">
<title>_core_3d__core_3dshadow_pass:e&#45;&gt;_core_3d__core_3dmain_pass:w</title>
<path fill="none" stroke="white" d="M479.5,-347C522.09,-347 533.58,-330 571.31,-327.35"/>
<polygon fill="white" stroke="white" points="571.62,-330.84 581.5,-327 571.39,-323.84 571.62,-330.84"/>
</g>
<!-- _core_3d__core_3dGraphInputNode -->
<g id="node10" class="node">
<title>_core_3d__core_3dGraphInputNode</title>
<text text-anchor="start" x="107" y="-312.8" font-family="Helvetica,sans-Serif" font-size="14.00" fill="white">GraphInputNode</text>
<text text-anchor="start" x="123" y="-302" font-family="Helvetica,sans-Serif" font-size="10.00" fill="red">GraphInputNode</text>
<polygon fill="none" stroke="#99aab5" points="35,-274 35,-295 162,-295 162,-274 35,-274"/>
<text text-anchor="start" x="38" y="-280.8" font-family="Helvetica,sans-Serif" font-size="14.00" fill="white">view_entity: Entity</text>
<polygon fill="none" stroke="#99aab5" points="164,-274 164,-295 291,-295 291,-274 164,-274"/>
<text text-anchor="start" x="167" y="-280.8" font-family="Helvetica,sans-Serif" font-size="14.00" fill="white">view_entity: Entity</text>
<path fill="none" stroke="#99aab5" d="M44,-271.5C44,-271.5 282,-271.5 282,-271.5 288,-271.5 294,-277.5 294,-283.5 294,-283.5 294,-316.5 294,-316.5 294,-322.5 288,-328.5 282,-328.5 282,-328.5 44,-328.5 44,-328.5 38,-328.5 32,-322.5 32,-316.5 32,-316.5 32,-283.5 32,-283.5 32,-277.5 38,-271.5 44,-271.5"/>
</g>
<!-- _core_3d__core_3dGraphInputNode&#45;&gt;_core_3d__core_3dmain_pass -->
<g id="edge6" class="edge">
<title>_core_3d__core_3dGraphInputNode:e&#45;&gt;_core_3d__core_3dmain_pass:w</title>
<path fill="none" stroke="white" d="M292,-284C383.02,-284 405.62,-289.88 496.5,-295 530.59,-296.92 541.56,-299.45 571.17,-299.92"/>
<polygon fill="white" stroke="white" points="571.47,-303.42 581.5,-300 571.53,-296.42 571.47,-303.42"/>
</g>
<!-- _core_3d__core_3dGraphInputNode&#45;&gt;_core_3d__core_3dshadow_pass -->
<g id="edge8" class="edge">
<title>_core_3d__core_3dGraphInputNode:e&#45;&gt;_core_3d__core_3dshadow_pass:w</title>
<path fill="none" stroke="white" d="M292,-284C332.5,-284 339.42,-314.34 374.4,-319.31"/>
<polygon fill="white" stroke="white" points="374.29,-322.81 384.5,-320 374.76,-315.83 374.29,-322.81"/>
</g>
<!-- _core_3d__core_3dGraphInputNode&#45;&gt;_core_3d__core_3dui_pass -->
<g id="edge10" class="edge">
<title>_core_3d__core_3dGraphInputNode:e&#45;&gt;_core_3d__core_3dui_pass:w</title>
<path fill="none" stroke="white" d="M292,-284C383.58,-284 612.87,-265.92 704,-275 733.93,-277.98 742.85,-287.55 768.3,-289.61"/>
<polygon fill="white" stroke="white" points="768.37,-293.11 778.5,-290 768.64,-286.12 768.37,-293.11"/>
</g>
<!-- _camera_driver -->
<g id="node12" class="node">
<title>_camera_driver</title>
<text text-anchor="start" x="116" y="-544.8" font-family="Helvetica,sans-Serif" font-size="14.00" fill="white">camera_driver</text>
<text text-anchor="start" x="117.5" y="-534" font-family="Helvetica,sans-Serif" font-size="10.00" fill="red">CameraDriverNode</text>
<path fill="none" stroke="#99aab5" d="M122.33,-526C122.33,-526 203.67,-526 203.67,-526 209.33,-526 215,-531.67 215,-537.33 215,-537.33 215,-548.67 215,-548.67 215,-554.33 209.33,-560 203.67,-560 203.67,-560 122.33,-560 122.33,-560 116.67,-560 111,-554.33 111,-548.67 111,-548.67 111,-537.33 111,-537.33 111,-531.67 116.67,-526 122.33,-526"/>
</g>
</g>
</svg>
